<svg xmlns="http://www.w3.org/2000/svg" width="1024" height="1024" viewBox="0 0 1024 1024">
  <defs>
    <linearGradient id="g" x1="0" y1="0" x2="1" y2="1">
      <stop offset="0" stop-color="#3B82F6"/>
      <stop offset="1" stop-color="#EC4899"/>
    </linearGradient>
    <radialGradient id="v" cx="50%" cy="45%" r="70%">
      <stop offset="0" stop-color="#000" stop-opacity="0"/>
      <stop offset="1" stop-color="#000" stop-opacity="0.25"/>
    </radialGradient>
    <filter id="s" x="-20%" y="-20%" width="140%" height="140%">
      <feDropShadow dx="0" dy="18" stdDeviation="22" flood-color="#000" flood-opacity="0.25"/>
    </filter>
  </defs>

  <rect x="90" y="90" width="844" height="844" rx="190" fill="url(#g)" filter="url(#s)"/>
  <rect x="90" y="90" width="844" height="844" rx="190" fill="url(#v)"/>

  <!-- Simple "R" mark (placeholder until you provide Railway official logo assets) -->
  <path
    d="M364 718V306h198c48 0 86 13 113 39c27 26 41 60 41 102c0 32-9 60-27 85c-18 25-43 42-75 52l108 134h-96l-94-121h-73v121h-95Zm95-194h90c20 0 36-5 47-16c11-11 17-26 17-45c0-19-6-34-17-45c-11-11-27-16-47-16h-90v122Z"
    fill="#FFFFFF"
    opacity="0.92"
  />
</svg>
